<svg id="Layer_1" enable-background="new 0 0 256 256" height="512" viewBox="0 0 256 256" width="512" xmlns="http://www.w3.org/2000/svg"><g><path d="m54 196.3h-2.2v-2.3c0-1.7-1.4-3-3-3-1.7 0-3 1.4-3 3v2.2h-2.2c-1.7 0-3 1.4-3 3 0 1.7 1.4 3 3 3h2.2v2.2c0 1.7 1.4 3 3 3 1.7 0 3-1.4 3-3v-2.2h2.2c1.7 0 3-1.4 3-3 .1-1.6-1.3-2.9-3-2.9z" fill="#70d6f9"/><circle cx="213.2" cy="179.4" fill="#f5c84c" r="3.2"/><circle cx="199.2" cy="21.4" fill="#87d147" r="3.2"/><circle cx="65.2" cy="218.4" fill="#fc657e" r="3.2"/><path d="m183.3 7.9c-4-.7-7.1-3.8-7.9-7.7 0-.1-.1-.2-.2-.1-.1 0-.1.1-.1.1-.8 4-3.9 7-7.9 7.7-.1 0-.2.1-.2.2s.1.1.2.2c4 .7 7.1 3.8 7.9 7.7 0 .1.1.2.2.1.1 0 .1-.1.1-.1.8-4 3.9-7 7.9-7.7.1 0 .2-.1.2-.2s-.1-.2-.2-.2z" fill="#f5c84c"/><path d="m128 14.2c-27.6-.2-53.8 11.5-72.1 32.2-31.6 35.6-31.5 89.3-1.3 126l62.2 75.8c5.1 6.2 14.2 7.1 20.4 2 .7-.6 1.4-1.3 2-2l62.2-75.8c14.8-18.1 22.8-40.8 22.5-64.2 0-51.9-44-94-95.9-94z" fill="#ef4460"/><path d="m164 163.1-16.9-16.9c-2.4-2.4-2.4-6.2 0-8.6l16.9-16.9c2.4-2.4 6.2-2.4 8.6 0s2.4 6.2 0 8.6l-6.5 6.5h19.2c1.9 0 3.6.9 4.8 2.3.5-1.2 1-2.3 1.5-3.5-3 1.5-6.6.2-8.1-2.7-1.2-2.3-.7-5.1 1.2-7l6.5-6.5h-19.2c-3.4 0-6.1-2.6-6.1-6s2.6-6.1 6-6.1h.2 19.2l-6.5-6.5c-2.4-2.4-2.4-6.2 0-8.6s6.2-2.4 8.6 0l.7.7c-9.9-36.4-47.3-57.9-83.7-48.1s-57.9 47.3-48.1 83.7 47.3 57.9 83.7 48.1c8-2.2 15.6-5.8 22.4-10.7-1.8-.1-3.3-.7-4.4-1.8z" fill="#edf4fc"/><path d="m166 148 6.5 6.5c1.4 1.4 2 3.4 1.7 5.4 3.9-3.6 7.3-7.6 10.3-11.9z" fill="#edf4fc"/><path d="m128 256c-5.1 0-9.9-2.3-13.1-6.2l-62.2-75.8c-15-18.3-23.2-41.3-23.1-65.1.2-53.9 44.1-97.5 98.1-97.3h.3c25.9 0 50.7 10.1 69.2 28.3 18.8 18.4 29.2 42.6 29.2 68.3.3 24-7.9 47.2-23.1 65.8l-62.2 75.8c-3.2 3.9-8 6.2-13.1 6.2zm0-239.3c-51.2-.4-93 40.7-93.4 91.9v.4c-.1 22.5 7.6 44.4 21.9 61.9l62.2 75.8c4.2 5.1 11.7 5.9 16.8 1.7.6-.5 1.2-1.1 1.7-1.7l62.2-75.8c14.5-17.6 22.2-39.8 21.9-62.6 0-24.4-9.8-47.3-27.7-64.8-17.4-17.2-41-26.8-65.6-26.8z"/><g fill="#c7d7e5"><path d="m147.1 146.2c-2.4-2.4-2.4-6.2 0-8.6l2.3-2.3h-60.4c-3.4 0-6.2 2.8-6.2 6.2s2.8 6.2 6.2 6.2h59.5z"/><path d="m164.8 91.6c-.2-.2-.4-.4-.6-.6l-35.6-35.6c-2.2-2.2-5.7-2.3-8-.2-.1.1-.1.1-.2.2l-35.6 35.6c-.2.2-.4.4-.6.6-2.9 3.7-.2 9.5 4.2 9.5h72.1c4.5 0 7.2-5.8 4.3-9.5z"/><path d="m92.2 101.1v34.2h12.3v-34.2z"/><path d="m118.4 101.1h12.4v34.2h-12.4z"/><path d="m156.9 127.9v-26.7h-12.3v34.2h4.8z"/></g><circle cx="124.4" cy="83" fill="#dae6f1" r="7.2"/><path d="m148.6 150.2h-59.6c-4.8 0-8.7-3.9-8.7-8.7s3.9-8.7 8.7-8.7h60.3c1.4 0 2.5 1.1 2.5 2.5 0 .7-.3 1.3-.7 1.8l-2.3 2.3c-1.4 1.4-1.4 3.7 0 5l1.5 1.5c1 1 1 2.6 0 3.5-.4.5-1.1.8-1.7.8zm-59.6-12.4c-2 0-3.7 1.6-3.7 3.7s1.6 3.7 3.7 3.7h54.4c-1-2.4-.9-5.1.4-7.4z"/><path d="m160.6 103.6h-72.1c-3-.1-5.7-1.8-7-4.6-1.5-2.9-1.2-6.4.8-9 .2-.3.5-.6.8-.9l35.6-35.6c3.2-3.2 8.3-3.3 11.6-.1 0 0 .1.1.1.1l35.6 35.7c.3.3.5.6.8.9 2 2.6 2.3 6.1.8 9-1.3 2.7-4 4.5-7 4.5zm-36.1-47.4c-.9 0-1.7.4-2.3 1l-35.6 35.5c-.1.1-.2.3-.3.4-.8 1.1-.9 2.5-.3 3.7.4 1 1.4 1.7 2.5 1.8h72.1c1.1-.1 2.1-.8 2.5-1.8.6-1.2.5-2.6-.3-3.7-.1-.1-.2-.3-.4-.4l-35.6-35.6c-.6-.6-1.4-.9-2.3-.9z"/><path d="m104.6 137.9h-12.4c-1.4 0-2.5-1.1-2.5-2.5v-34.2c0-1.4 1.1-2.5 2.5-2.5h12.3c1.4 0 2.5 1.1 2.5 2.5v34.2c.1 1.3-1 2.5-2.4 2.5zm-9.9-5h7.3v-29.2h-7.3z"/><path d="m130.7 137.9h-12.3c-1.4 0-2.5-1.1-2.5-2.5v-34.2c0-1.4 1.1-2.5 2.5-2.5h12.3c1.4 0 2.5 1.1 2.5 2.5v34.2c0 1.3-1.1 2.5-2.5 2.5zm-9.8-5h7.3v-29.2h-7.3z"/><path d="m149.4 137.9h-4.9c-1.4 0-2.5-1.1-2.5-2.5v-34.2c0-1.4 1.1-2.5 2.5-2.5h12.4c1.4 0 2.5 1.1 2.5 2.5v26.7c0 .7-.3 1.3-.7 1.8l-7.5 7.5c-.5.4-1.2.7-1.8.7zm-2.4-5h1.3l6-6v-23.2h-7.3z"/><path d="m124.4 92.7c-5.4 0-9.7-4.3-9.7-9.7s4.3-9.7 9.7-9.7 9.7 4.3 9.7 9.7c0 5.4-4.3 9.7-9.7 9.7zm0-14.4c-2.6 0-4.7 2.1-4.7 4.7s2.1 4.7 4.7 4.7 4.7-2.1 4.7-4.7c0-2.6-2.1-4.7-4.7-4.7z"/><path d="m193.2 91.1 16.9 16.9c2.4 2.4 2.4 6.2 0 8.6l-16.9 16.9c-2.4 2.4-6.2 2.4-8.6 0s-2.4-6.2 0-8.6l6.5-6.5h-19.2c-3.4 0-6-2.8-6-6.1s2.7-5.9 6-6h19.2l-6.5-6.5c-2.4-2.4-2.4-6.2 0-8.6s6.2-2.4 8.6-.1z" fill="#fc657e"/><path d="m164 120.7-16.9 16.9c-2.4 2.4-2.4 6.2 0 8.6l16.9 16.9c2.4 2.4 6.2 2.4 8.6 0s2.4-6.2 0-8.6l-6.6-6.5h19.2c3.4 0 6.1-2.6 6.1-6s-2.6-6.1-6-6.1c-.1 0-.1 0-.2 0h-19.1l6.5-6.5c2.4-2.4 2.4-6.2 0-8.6-2.3-2.4-6.2-2.4-8.5-.1z" fill="#29589f"/><path d="m164 120.7-16.9 16.9c-2.4 2.4-2.4 6.2 0 8.6l16.9 16.9c2.4 2.4 6.2 2.4 8.6 0s2.4-6.2 0-8.6l-6.6-6.5h19.2c3.4 0 6.1-2.6 6.1-6s-2.6-6.1-6-6.1c-.1 0-.1 0-.2 0h-19.1l6.5-6.5c2.4-2.4 2.4-6.2 0-8.6-2.3-2.4-6.2-2.4-8.5-.1z" fill="#70d6f9"/><path d="m188.9 137.8c-4.7 0-8.6-3.8-8.6-8.6 0-2.3.9-4.5 2.5-6.1l2.3-2.3h-13.2c-4.7-.1-8.5-3.9-8.5-8.7.1-4.7 3.8-8.4 8.5-8.5h13.2l-2.3-2.3c-3.4-3.3-3.4-8.8 0-12.1 3.3-3.4 8.8-3.4 12.1 0l16.9 16.9c3.3 3.3 3.3 8.8 0 12.1l-16.9 16.9c-1.6 1.8-3.7 2.7-6 2.7zm-17-29c-2 0-3.5 1.7-3.5 3.6s1.6 3.5 3.5 3.5h19.2c1.4 0 2.5 1.1 2.5 2.5 0 .7-.3 1.3-.7 1.8l-6.5 6.5c-1.4 1.4-1.4 3.7 0 5 1.4 1.4 3.7 1.4 5 0l16.9-16.9c1.4-1.4 1.4-3.7 0-5l-16.9-16.9c-1.4-1.4-3.7-1.4-5 0-1.4 1.4-1.4 3.7 0 5l6.5 6.5c1 1 1 2.6 0 3.5-.5.5-1.1.7-1.8.7z"/><path d="m168.3 167.4c-2.3 0-4.5-.9-6.1-2.5l-16.9-16.9c-3.3-3.3-3.3-8.8 0-12.1l16.9-16.9c3.3-3.3 8.8-3.3 12.1 0s3.3 8.8 0 12.1l-2.3 2.3h13.2c4.7.1 8.5 3.9 8.5 8.7-.1 4.7-3.8 8.4-8.5 8.5h-13.2l2.3 2.3c3.3 3.3 3.3 8.8 0 12.1-1.6 1.5-3.8 2.4-6 2.4zm-2.6-44.9-16.9 16.9c-1.4 1.4-1.4 3.7 0 5l16.9 16.9c1.4 1.4 3.7 1.4 5 0 1.4-1.4 1.4-3.7 0-5l-6.5-6.5c-1-1-1-2.6 0-3.5.5-.5 1.1-.7 1.8-.7h19.2c2 0 3.5-1.7 3.5-3.6s-1.6-3.5-3.5-3.5h-19.2c-1.4 0-2.5-1.1-2.5-2.5 0-.7.3-1.3.7-1.8l6.5-6.5c1.4-1.4 1.4-3.6.1-5-1.3-1.6-3.6-1.6-5.1-.2.1 0 .1 0 0 0z"/><path d="m168.3 167.4c-2.3 0-4.5-.9-6.1-2.5l-16.9-16.9c-3.3-3.3-3.3-8.8 0-12.1l16.9-16.9c3.3-3.3 8.8-3.3 12.1 0s3.3 8.8 0 12.1l-2.3 2.3h13.2c4.7.1 8.5 3.9 8.5 8.7-.1 4.7-3.8 8.4-8.5 8.5h-13.2l2.3 2.3c3.3 3.3 3.3 8.8 0 12.1-1.6 1.5-3.8 2.4-6 2.4zm-2.6-44.9-16.9 16.9c-1.4 1.4-1.4 3.7 0 5l16.9 16.9c1.4 1.4 3.7 1.4 5 0 1.4-1.4 1.4-3.7 0-5l-6.5-6.5c-1-1-1-2.6 0-3.5.5-.5 1.1-.7 1.8-.7h19.2c2 0 3.5-1.7 3.5-3.6s-1.6-3.5-3.5-3.5h-19.2c-1.4 0-2.5-1.1-2.5-2.5 0-.7.3-1.3.7-1.8l6.5-6.5c1.4-1.4 1.4-3.6.1-5-1.3-1.6-3.6-1.6-5.1-.2.1 0 .1 0 0 0z"/><path d="m128 180.5c-39.1 0-70.8-31.7-70.8-70.7s31.7-70.8 70.8-70.8c31.9 0 59.9 21.4 68.3 52.2.4 1.3-.4 2.7-1.8 3.1-.9.2-1.8 0-2.4-.6l-.7-.7c-1.4-1.4-3.7-1.4-5 0-1.4 1.4-1.4 3.7 0 5l6.5 6.5c1 1 1 2.6 0 3.5-.5.5-1.1.7-1.8.7h-19.2c-2 0-3.5 1.7-3.5 3.6s1.6 3.5 3.5 3.5h19.2c1.4 0 2.5 1.1 2.5 2.5 0 .7-.3 1.3-.7 1.8l-6.5 6.5c-1.4 1.4-1.4 3.6 0 5 1.1 1.1 2.7 1.4 4.1.7 1.2-.6 2.7-.1 3.3 1.2.3.6.3 1.4.1 2-.5 1.2-1 2.5-1.6 3.7-.6 1.3-2.1 1.8-3.3 1.2-.4-.2-.7-.4-.9-.7-.7-.9-1.7-1.4-2.8-1.4h-19.3c-1.4 0-2.5-1.1-2.5-2.5 0-.7.3-1.3.7-1.8l6.5-6.5c1.4-1.4 1.4-3.7 0-5-1.4-1.4-3.7-1.4-5 0l-16.9 16.9c-1.4 1.4-1.4 3.7 0 5l16.9 16.9c.7.7 1.5 1 2.5 1 1.4 0 2.5 1.2 2.5 2.5 0 .8-.4 1.5-1 2-12.1 8.9-26.7 13.7-41.7 13.7zm0-136.5c-36.3 0-65.7 29.4-65.7 65.8 0 36.3 29.4 65.7 65.8 65.7 12.3 0 24.4-3.5 34.9-10-.2-.2-.4-.4-.7-.6l-17-16.9c-3.3-3.3-3.3-8.8 0-12.1l16.9-16.9c.8-.8 1.6-1.4 2.6-1.8-2.7-3.9-1.7-9.2 2.2-11.9 1.4-1 3.1-1.5 4.9-1.5h13.2l-2.3-2.3c-3.3-3.3-3.3-8.8 0-12.1 1.8-1.8 4.3-2.7 6.9-2.5-9.6-25.8-34.2-42.9-61.7-42.9zm44.1 89.3h9.3c-1.8-3.3-1.3-7.5 1.4-10.2l2.3-2.3h-9.3c1.8 3.3 1.3 7.5-1.4 10.2z"/><path d="m174.2 162.4c-1.4 0-2.5-1.1-2.5-2.5 0-.2 0-.3 0-.5.2-1.2-.2-2.3-1-3.2l-6.5-6.5c-1-1-1-2.6 0-3.5.5-.5 1.1-.7 1.8-.7h18.5c1.4 0 2.5 1.1 2.5 2.5 0 .5-.1 1-.4 1.4-3.1 4.5-6.6 8.7-10.7 12.4-.4.4-1.1.6-1.7.6zm-2.1-11.9 2.3 2.3c.6.6 1.1 1.3 1.5 2.1 1.3-1.4 2.6-2.8 3.7-4.3h-7.5z"/></g></svg>